<mxfile host="app.diagrams.net" modified="2023-08-25T16:43:19.868Z" agent="Mozilla/5.0 (X11; Linux x86_64; rv:109.0) Gecko/20100101 Firefox/111.0" version="21.6.9" etag="2ImnHSLo92AQFZmCEpxe" type="github">
  <diagram name="PÃ¡gina-1" id="BnzSy9BGahGJVH9qMBtX">
    <mxGraphModel>
      <root>
        <mxCell id="0" />
        <mxCell id="1" parent="0" />
      </root>
    </mxGraphModel>
  </diagram>
</mxfile>
